<?xml version="1.0" standalone="yes"?>
<svg width="291" height="292">
<path style="fill:#000000; stroke:none;" d="M0 0L0 292L291 292L291 0L97 0L97 1C143.655 1 202.188 -8.4725 244 16.4529C284.156 40.3913 287 82.3176 287 124L287 286L121 286C86.7145 286 52.01 286.643 26.1705 259.91C1.49373 234.38 4 202.699 4 170L4 0L0 0z"/>
<path style="fill:#ffffff; stroke:none;" d="M4 0C6.44438 18.1376 14.6012 36.5224 19.9753 54C30.837 89.3244 41.4895 124.711 52.4923 160C57.0497 174.617 61.8995 189.275 66.091 204C67.8607 210.217 69.0171 220.205 72.9877 225.362C79.0517 233.238 98.1126 237.835 107 242.248C127.845 252.596 148.866 262.731 170 272.475C184.135 278.991 195.118 286 211 286L211 285L209 283L224 283L224 282C214.432 282 204.321 283.399 197 276L232 276L232 275C218.511 275 194.936 279.754 185 269L240 269L240 268L196 268C187.361 268 179.531 268.62 173 262L248 262L248 261C220.571 261 185.08 266.943 160 256L160 255L256 255L256 254L194 254C168.52 254 141.848 253.547 123 233L279 233L279 232L157 232C142.78 232 121.284 236.287 110 226L283 226L283 225L114 225L114 224C142.143 218.542 169.389 219 198 219L198 218L150 218L150 217C171.571 212.936 194.232 205 216 205L216 204L206 203L206 202L217 197L217 196L214 196L216 190L284 190L284 189L217 189C218.266 181.064 226.7 183 233 183L282 183L282 182L218 182L215 169L275 169L275 168L234 168L215.129 167.276L203 155L264 155L264 153L215 153C206.663 153 199.394 154.415 194 147L256 147L256 146C230.32 146 194.35 154.002 176 133L242 133L242 132L182 131L182 126L234 126L234 125L172 124L172 123L174 119L225 119L225 118L180 116.985L166 114L166 113L215 112L215 111C200.297 106.654 180.341 110 165 110C156.015 110 147.997 111.47 141 105L204 105L204 104C189.297 99.654 169.341 103 154 103C145.663 103 137.558 104.383 132 97L182 97L182 96C166.665 96 133.748 102.245 123 90L287 90L287 89L160 89C146.875 89 123.005 93.9258 114 83L286 83L286 82L152 82C141.46 82 112.992 87.1046 108 76L285 76L285 75L148 75C137.056 75 108.101 80.2217 103 69L283 69L283 67L144 67L112 67C108.641 66.9985 101.977 67.879 101.801 62.9421C101.643 58.5107 106.071 55.0932 110 54.2785C120.206 52.1624 132.579 54 143 54C188.128 54 232.954 57 278 57L248 49.8002L190 37.9853L67 12.5509L4 0z"/>
<path style="fill:#abc4e3; stroke:none;" d="M8 0L8 1L11 1L8 0z"/>
<path style="fill:#2d4d6d; stroke:none;" d="M11 0L11 1L22 2L11 0z"/>
<path style="fill:#005ea2; stroke:none;" d="M17 0L17 1L81 15.0841L107 18L107 17L105 17L105 16L129 11.1698L166 12L166 15C174.881 15 192.857 11.9682 198 21C207.623 23.1823 212.06 30.0635 218 37L214 37L214 39L223 39L220 43L220 44L278 55C270.106 27.649 240.715 11.0174 215 4.62656C189.661 -1.67065 161.923 1 136 1C96.3288 1 56.7165 0 17 0z"/>
<path style="fill:#86a1ad; stroke:none;" d="M14.6667 1.33334L15.3333 1.66666L14.6667 1.33334z"/>
<path style="fill:#6b8cb3; stroke:none;" d="M19 2L19 3L22 3L19 2z"/>
<path style="fill:#788c93; stroke:none;" d="M4.33333 3.66666L4.66667 4.33334L4.33333 3.66666z"/>
<path style="fill:#7eb4dc; stroke:none;" d="M28.6667 4.33334L29.3333 4.66666L28.6667 4.33334z"/>
<path style="fill:#005ea2; stroke:none;" d="M4 5L4 178C4 214.99 5.43024 250.87 41 272.536C63.22 286.071 88.904 286 114 286L198 286L198 285L174 277C172.301 268.132 159.228 272.688 153 272.961C136.516 273.682 118.736 271.391 103 266.367C94.2441 263.571 84.6762 255.277 76 255L76 251C65.901 248.651 55.5086 237.321 54 227L50 227L50 223C42.0296 220.916 37.0834 206.94 33.1559 200.3C18.0261 174.722 14.2637 146.653 19.4421 117.004C21.0953 107.539 27.9656 101.031 28 91L30 91L33 103L34 103C32.1174 79.9819 19.2971 57.7766 12.9383 35.9854C10.0705 26.1577 10.3198 13.4911 4 5z"/>
<path style="fill:#8dadbf; stroke:none;" d="M33 5L33 6L36 6L33 5z"/>
<path style="fill:#7ea6e6; stroke:none;" d="M38.6667 6.33334L39.3333 6.66666L38.6667 6.33334z"/>
<path style="fill:#7c99af; stroke:none;" d="M43 7L43 8L46 8L43 7z"/>
<path style="fill:#a3adb6; stroke:none;" d="M52.6667 9.33334L53.3333 9.66666L52.6667 9.33334z"/>
<path style="fill:#85abc6; stroke:none;" d="M57 10L57 11L60 11L57 10z"/>
<path style="fill:#84aac5; stroke:none;" d="M62.6667 11.3333L63.3333 11.6667L62.6667 11.3333z"/>
<path style="fill:#0271b1; stroke:none;" d="M105 16L105 17L107 17L107 18L102 19L102 20L127.91 24.6613L138.025 21.1836L159 23L159 27L182 27.7894L198 34L198 37L190 37L190 38C197.084 38.3628 220.161 47.5534 223 39L214 39L214 37L218 37C213.521 29.4099 207.299 22.239 198 21C194.81 11.6945 173.873 15 166 15L166 12L128 11.1698L105 16z"/>
<path style="fill:#91c9f6; stroke:none;" d="M66.6667 12.3333L67.3333 12.6667L66.6667 12.3333z"/>
<path style="fill:#5d86aa; stroke:none;" d="M7.33333 13.6667L7.66667 14.3333L7.33333 13.6667z"/>
<path style="fill:#8abeea; stroke:none;" d="M76.6667 14.3333L77.3333 14.6667L76.6667 14.3333z"/>
<path style="fill:#9cabb4; stroke:none;" d="M81 15L81 16L84 16L81 15z"/>
<path style="fill:#7caff3; stroke:none;" d="M86.6667 16.3333L87.3333 16.6667L86.6667 16.3333z"/>
<path style="fill:#8da9ba; stroke:none;" d="M91 17L91 18L94 18L91 17z"/>
<path style="fill:#afbbbb; stroke:none;" d="M100.667 19.3333L101.333 19.6667L100.667 19.3333z"/>
<path style="fill:#8ac6e9; stroke:none;" d="M105 20L105 21L108 21L105 20z"/>
<path style="fill:#9cbed0; stroke:none;" d="M110.667 21.3333L111.333 21.6667L110.667 21.3333z"/>
<path style="fill:#336783; stroke:none;" d="M112 21L112 22L118 22L112 21z"/>
<path style="fill:#0485bc; stroke:none;" d="M131 26L198 37L198 34C192.197 33.6821 189.227 29.9408 183.996 28.1088C176.301 25.4139 166.869 25.5076 159 27L159 23C151.735 23 133.883 17.3202 131 26z"/>
<path style="fill:#85b8d4; stroke:none;" d="M115 22L115 23L118 23L115 22z"/>
<path style="fill:#548398; stroke:none;" d="M120 23L120 24L124 24L120 23z"/>
<path style="fill:#9ecece; stroke:none;" d="M129.667 25.3333L130.333 25.6667L129.667 25.3333z"/>
<path style="fill:#568cb4; stroke:none;" d="M11.3333 26.6667L11.6667 27.3333L11.3333 26.6667z"/>
<path style="fill:#8dcbe3; stroke:none;" d="M134.667 26.3333L135.333 26.6667L134.667 26.3333z"/>
<path style="fill:#a6c1d3; stroke:none;" d="M139 27L139 28L142 28L139 27z"/>
<path style="fill:#75cfee; stroke:none;" d="M144 28L144 29L147 29L144 28z"/>
<path style="fill:#7a96a8; stroke:none;" d="M12.3333 29.6667L12.6667 30.3333L12.3333 29.6667z"/>
<path style="fill:#1c5070; stroke:none;" d="M12 31L14 41L15 41L12 31z"/>
<path style="fill:#427e91; stroke:none;" d="M160 31L160 32L166 32L160 31z"/>
<path style="fill:#8fcfde; stroke:none;" d="M163 32L163 33L166 33L163 32z"/>
<path style="fill:#afc3cd; stroke:none;" d="M168 33L168 34L171 34L168 33z"/>
<path style="fill:#95b8d2; stroke:none;" d="M178.667 35.3333L179.333 35.6667L178.667 35.3333z"/>
<path style="fill:#2783b0; stroke:none;" d="M180 35L180 36L190 37L190 35L180 35z"/>
<path style="fill:#a9c7d2; stroke:none;" d="M187 37L187 38L190 38L187 37z"/>
<path style="fill:#47a1d5; stroke:none;" d="M192 38L192 39L196 39L192 38z"/>
<path style="fill:#688cad; stroke:none;" d="M15.3333 39.6667L15.6667 40.3333L15.3333 39.6667z"/>
<path style="fill:#82bfe5; stroke:none;" d="M202.667 40.3333L203.333 40.6667L202.667 40.3333z"/>
<path style="fill:#356d88; stroke:none;" d="M208 41L208 42L214 42L208 41z"/>
<path style="fill:#6b9bba; stroke:none;" d="M16.3333 42.6667L16.6667 43.3333L16.3333 42.6667z"/>
<path style="fill:#93cbe5; stroke:none;" d="M211 42L211 43L214 43L211 42z"/>
<path style="fill:#668d98; stroke:none;" d="M216 43L216 44L220 44L216 43z"/>
<path style="fill:#59a9e0; stroke:none;" d="M222.667 44.3333L223.333 44.6667L222.667 44.3333z"/>
<path style="fill:#83acb4; stroke:none;" d="M17.3333 45.6667L17.6667 46.3333L17.3333 45.6667z"/>
<path style="fill:#a5b9ad; stroke:none;" d="M226.667 45.3333L227.333 45.6667L226.667 45.3333z"/>
<path style="fill:#697e6f; stroke:none;" d="M228.667 45.3333L229.333 45.6667L228.667 45.3333z"/>
<path style="fill:#8bd6ff; stroke:none;" d="M230.667 46.3333L231.333 46.6667L230.667 46.3333z"/>
<path style="fill:#6f99cf; stroke:none;" d="M241.667 48.3333L242.333 48.6667L241.667 48.3333z"/>
<path style="fill:#6d90be; stroke:none;" d="M246.667 49.3333L247.333 49.6667L246.667 49.3333z"/>
<path style="fill:#a5bedd; stroke:none;" d="M114 52L114 53L134 52L114 52z"/>
<path style="fill:#6688d1; stroke:none;" d="M19.3333 52.6667L19.6667 53.3333L19.3333 52.6667z"/>
<path style="fill:#8ca6c4; stroke:none;" d="M121 52L121 53L145 53L121 52z"/>
<path style="fill:#7cabd3; stroke:none;" d="M260.667 52.3333L261.333 52.6667L260.667 52.3333z"/>
<path style="fill:#a6babb; stroke:none;" d="M264.667 53.3333L265.333 53.6667L264.667 53.3333z"/>
<path style="fill:#d5e3e6; stroke:none;" d="M107 54L107 55L202 55L173 54L107 54z"/>
<path style="fill:#5d9bd4; stroke:none;" d="M270 54L270 55L273 55L270 54z"/>
<path style="fill:#72a3b2; stroke:none;" d="M20.3333 55.6667L20.6667 56.3333L20.3333 55.6667z"/>
<path style="fill:#5a9fcb; stroke:none;" d="M103 59L171 59L209 58L209 57L198 57L198 56L209 56C202.081 53.0968 191.48 55 184 55L128 55C121.025 55 106.994 52.1639 103 59z"/>
<path style="fill:#8bc5f2; stroke:none;" d="M209 55L209 56L222 56L209 55z"/>
<path style="fill:#c0ebff; stroke:none;" d="M222 55L222 56L230 56L222 55z"/>
<path style="fill:#aea3ad; stroke:none;" d="M274.667 55.3333L275.333 55.6667L274.667 55.3333z"/>
<path style="fill:#776d76; stroke:none;" d="M276 55L276 56L279 56L276 55z"/>
<path style="fill:#3872a0; stroke:none;" d="M198 56L198 57L230 57L198 56z"/>
<path style="fill:#788e91; stroke:none;" d="M230 56L230 57L238 57L230 56z"/>
<path style="fill:#aeb4c2; stroke:none;" d="M238 56L238 57L246 57L238 56z"/>
<path style="fill:#c5f9f8; stroke:none;" d="M278 56L270 57L270 58L278 56z"/>
<path style="fill:#0884a8; stroke:none;" d="M206 58L206 59L233 59C226.091 54.8613 213.644 56.5808 206 58z"/>
<path style="fill:#05619e; stroke:none;" d="M230 57L230 58L271 59C259.732 54.2717 242.133 57 230 57z"/>
<path style="fill:#6ba2d0; stroke:none;" d="M258 57L258 58L262 58L258 57z"/>
<path style="fill:#8cbfff; stroke:none;" d="M262 57L262 58L270 58L262 57z"/>
<path style="fill:#8eacb2; stroke:none;" d="M102 58C105.889 62.4508 119.319 60 125 60L190 60L190 59L133 59L102 58z"/>
<path style="fill:#46696b; stroke:none;" d="M246 59L246 60L280 60L280 58L246 59z"/>
<path style="fill:#5d989a; stroke:none;" d="M190 59L190 60L246 60L228 59L190 59z"/>
<path style="fill:#cffdff; stroke:none;" d="M102 60L102 62L281 62L281 60L102 60z"/>
<path style="fill:#7eaebd; stroke:none;" d="M101 62L101 66L102 66L102 63L210 63L177 62L101 62z"/>
<path style="fill:#528ba0; stroke:none;" d="M210 62L210 63L238 63L210 62z"/>
<path style="fill:#285477; stroke:none;" d="M238 62L238 63L281 63C269.774 58.2896 250.219 62 238 62z"/>
<path style="fill:#59a5d3; stroke:none;" d="M102 63L102 66L214 67L214 66L198 66L198 63L102 63z"/>
<path style="fill:#3b95c4; stroke:none;" d="M198 63L198 66L214 66L214 63L198 63z"/>
<path style="fill:#0a7eac; stroke:none;" d="M214 63L214 66L246 65L246 63L214 63z"/>
<path style="fill:#085a97; stroke:none;" d="M230 65L230 66L283 67L282 63L230 65z"/>
<path style="fill:#69899d; stroke:none;" d="M23.3333 65.6667L23.6667 66.3333L23.3333 65.6667z"/>
<path style="fill:#70bde6; stroke:none;" d="M102 66L102 67L190 67L163 66L102 66z"/>
<path style="fill:#2c9bce; stroke:none;" d="M214 66L214 67L246 67L214 66z"/>
<path style="fill:#6b9abc; stroke:none;" d="M24 68L24 71L25 71L24 68z"/>
<path style="fill:#73afe2; stroke:none;" d="M103 69C106.219 77.7539 119.7 73.0117 127 73L201 73L198 71L198 70L206 70L175 69L103 69z"/>
<path style="fill:#499dd1; stroke:none;" d="M198 70L198 71C209.471 75.0972 218.559 70 230 70L198 70z"/>
<path style="fill:#0a7bb2; stroke:none;" d="M230 69L230 73L253 73L253 71L246 71L246 70L278 70C265.586 64.7907 243.526 69 230 69z"/>
<path style="fill:#0c56ab; stroke:none;" d="M246 70L246 71L284 73L284 69L246 70z"/>
<path style="fill:#2d92c2; stroke:none;" d="M217 73L230 73L230 70C225.319 70 219.987 68.8587 217 73z"/>
<path style="fill:#85b9cb; stroke:none;" d="M118 73L118 74L198 74L173 73L118 73z"/>
<path style="fill:#6495ad; stroke:none;" d="M198 73L198 74L214 74L198 73z"/>
<path style="fill:#2b648c; stroke:none;" d="M214 73L214 74L285 74L263 73L214 73z"/>
<path style="fill:#a7e8ff; stroke:none;" d="M105 74L105 75L285 75L267 74L231 74L105 74z"/>
<path style="fill:#82b6e6; stroke:none;" d="M108 76C110.339 84.2749 126.131 81 133 81C158.949 81 185.159 82.0393 211 80L211 79L141 77L108 76z"/>
<path style="fill:#b1d0d8; stroke:none;" d="M109 76L109 77L206 77L176 76L109 76z"/>
<path style="fill:#73adba; stroke:none;" d="M206 76L206 77L246 77C235.488 72.589 217.434 76 206 76z"/>
<path style="fill:#648793; stroke:none;" d="M246 76L246 77L285 77C274.726 72.6889 257.172 76 246 76z"/>
<path style="fill:#b4c9d4; stroke:none;" d="M27.3333 77.6667L27.6667 78.3333L27.3333 77.6667z"/>
<path style="fill:#4199ca; stroke:none;" d="M206 77L206 79L211 79L211 80L206 80L206 81L226 79L206 77z"/>
<path style="fill:#188fc1; stroke:none;" d="M223 77L223 78L224 80L224 81L246 81L246 77L223 77z"/>
<path style="fill:#0a5ca0; stroke:none;" d="M246 77L246 81L286 81C284.345 76.0132 279.54 77.0003 275 77L246 77z"/>
<path style="fill:#dbecf5; stroke:none;" d="M111 81L111 82L222 82L188 81L111 81z"/>
<path style="fill:#b5dfd7; stroke:none;" d="M222 81L222 82L254 82L222 81z"/>
<path style="fill:#b2bfc7; stroke:none;" d="M254 81L254 82L286 82L254 81z"/>
<path style="fill:#aedbff; stroke:none;" d="M114 85C135.959 79.7721 163.421 84 186 84L168 83L131 83L114 85z"/>
<path style="fill:#91bfe1; stroke:none;" d="M115 84C120.642 90.7736 133.881 88 142 88C166.017 88 190.061 87.1982 214 87L214 86L206 85L206 84L254 84C243.258 79.4925 224.682 83 213 83C180.347 83 147.708 84 115 84z"/>
<path style="fill:#4e93c9; stroke:none;" d="M254 83L254 84L286 84L254 83z"/>
<path style="fill:#5a9bc9; stroke:none;" d="M206 84L206 85L214 86L214 87L206 87L206 88L232 88C226.065 81.7329 213.891 84 206 84z"/>
<path style="fill:#1584c3; stroke:none;" d="M225 84L225 85L254 87L254 84L225 84z"/>
<path style="fill:#0f56a7; stroke:none;" d="M254 84L254 87L280 87L280 84L254 84z"/>
<path style="fill:#1b5487; stroke:none;" d="M280 84L280 87L249 87L249 88L287 88L287 84L280 84z"/>
<path style="fill:#c0e8ff; stroke:none;" d="M118 88L118 89L190 89L167 88L118 88z"/>
<path style="fill:#9ed5ff; stroke:none;" d="M190 88L190 89L222 89L190 88z"/>
<path style="fill:#71bce8; stroke:none;" d="M222 88L222 89L287 89L266 88L222 88z"/>
<path style="fill:#e4e8eb; stroke:none;" d="M123 92L155 91L214 91C207.806 88.4009 198.686 90 192 90L145 90C139.473 90 126.796 87.6555 123 92z"/>
<path style="fill:#9dcbce; stroke:none;" d="M214 90L214 91L287 91L264 90L214 90z"/>
<path style="fill:#016eae; stroke:none;" d="M28 91C27.8942 100.556 21.0435 106.964 19.4421 116.015C14.3995 144.515 16.5338 175.974 32.6111 200.3C36.9254 206.828 41.4358 221.741 50 223L50 227L54 227C54.7645 237.404 65.6099 249.593 76 251L76 255C82.2517 255.454 83.9555 259.844 89.1289 262.147C97.546 265.896 108.025 268.196 117 270.505C132.98 274.618 149.705 272.135 166 272C156.834 258.007 139.155 264.893 126 262.741C115.945 261.095 106.129 255.299 96 255L96 251L86 249C84.949 242.89 75.6364 239.763 70 239L70 235L54 223C53.5641 220.023 53.1028 218.382 50 218L36.7685 191.861L33.662 182.06L26 172L24.2091 140L26 111L35 111L30 91L28 91z"/>
<path style="fill:#699bbc; stroke:none;" d="M31.3333 91.6667L31.6667 92.3333L31.3333 91.6667z"/>
<path style="fill:#a0cdf0; stroke:none;" d="M124 91C130.149 98.3827 147.077 95 156 95C185.324 95 214.624 96 244 96L244 95L188 94L190 91L124 91z"/>
<path style="fill:#72b3e9; stroke:none;" d="M188 94L222 95L222 93C212.766 92.999 195.118 86.5179 188 94z"/>
<path style="fill:#449dbc; stroke:none;" d="M206 91L206 92L234 95C231.047 87.6534 212.89 91 206 91z"/>
<path style="fill:#0c79af; stroke:none;" d="M233 91C236.181 98.9138 258.292 95.3957 265 93C256.967 88.1881 242.173 91 233 91z"/>
<path style="fill:#045a9c; stroke:none;" d="M262 91L262 92L265 92L265 93L262 95L287 95L287 91L262 91z"/>
<path style="fill:#dbe2ec; stroke:none;" d="M128 95L128 96L182 96L164 95L128 95z"/>
<path style="fill:#7a8f98; stroke:none;" d="M244 95L244 96L287 96C275.774 91.2896 256.219 95 244 95z"/>
<path style="fill:#dafcff; stroke:none;" d="M132 99C148.934 94.9684 169.607 98 187 98C220.375 98 253.608 97 287 97L252 96L169 97L142 97L132 99z"/>
<path style="fill:#93b1bf; stroke:none;" d="M33.3333 97.6667L33.6667 98.3333L33.3333 97.6667z"/>
<path style="fill:#90d9ff; stroke:none;" d="M230 97L230 98L287 98L269 97L230 97z"/>
<path style="fill:#b7d9e2; stroke:none;" d="M133 98C136.899 103.407 144.504 100.4 150 99.375C160.11 97.4899 171.723 99 182 99C169.348 93.691 146.788 98 133 98z"/>
<path style="fill:#d8e2fe; stroke:none;" d="M136 101L136 102C153.866 107.281 174.991 101.002 193 101L175 98.9961L136 101z"/>
<path style="fill:#98c6e8; stroke:none;" d="M187 98L187 99L193 100L193 101L182 101L182 103L204 104L204 105L174 105L174 106C182.024 106.843 188.601 109.019 197 109C200.294 108.992 205.094 108.929 205 105L214 105L214 103C209.014 102.996 205.261 103.169 202 99L214 99L187 98z"/>
<path style="fill:#50a6cf; stroke:none;" d="M214 98L214 99L224 100L224 112L220 112L220 113L225 114L225 119L222 122L226 122L226 123L222 123L222 124L235 127L214 127L214 131L241 131L238 129L234 122L236 120L234 120L236 115L239 115L240 109L238 103L233 103L233 102L235 102L235 101L230 101L230 98L214 98z"/>
<path style="fill:#0b93c5; stroke:none;" d="M230 98L230 101L235 101L235 102L233 102L233 103L238 103L240 109L239 113C254.1 113.169 244.055 124.695 251 131L246 135L251 141L241 141L241 143C246.845 143.744 255.167 144.399 259 149L255 149L255 151L268 149L266 143C273.067 136.824 265.999 113.196 265 105L259 105L259 101L230 98z"/>
<path style="fill:#025e9b; stroke:none;" d="M238 98L238 99L259 101L259 105L265 105C265.647 115.178 272.779 134.053 266 143L268 149L257 151L257 152L266 154L264 157L269 156L269 157L267 158L270 163L257 163L257 165L265 165L264 167L275 170L262 170L262 171L269 171L269 173L264 173L264 174C269.345 174 275.026 172.942 279 177L270 177L270 181L286 181L286 99L238 98z"/>
<path style="fill:#135790; stroke:none;" d="M262 98L262 99L286 99L286 181L282 181L283 184L254 187L254 188L285 188L285 191L230 191L230 193L287 195L287 98L262 98z"/>
<path style="fill:#67afe3; stroke:none;" d="M202 99C204.502 103.772 209.196 102.999 214 103L214 105L205 105L203 109C207.982 109.001 212.156 108.364 215 113L206 113L206 114L211 114L210 116C215.123 116.647 221.55 118.783 225 114L220 113L220 112L224 112L224 100L202 99z"/>
<path style="fill:#739cb6; stroke:none;" d="M34.3333 101.667L34.6667 102.333L34.3333 101.667z"/>
<path style="fill:#017db8; stroke:none;" d="M34 103L35 111L26 111L24.1042 140L26 172C31.8674 175.581 33.7271 184.872 36.017 190.907C39.5364 200.182 46.0135 208.728 50 218C53.0719 217.89 53.6985 220.211 54 223L70 235L70 239C75.5422 240.289 84.2046 243.262 86 249L96 251L96 255C112.801 256.091 127.295 267.233 145 262L145 260C129.202 253.423 114.126 243.319 97.9606 237.915C91.6265 235.798 78.4094 234.291 74.0856 228.682C68.1266 220.952 67.4653 209.874 64.821 201C58.7767 180.717 51.8074 161.445 46.3465 141C43.3211 129.673 41.0117 112.421 34 103z"/>
<path style="fill:#d1e4ff; stroke:none;" d="M141 105C148.2 114.451 171.017 110 182 110L182 107L141 105z"/>
<path style="fill:#b4ccd4; stroke:none;" d="M182 109L182 110L214 110L182 109z"/>
<path style="fill:#4cb0e8; stroke:none;" d="M37.3333 111.667L37.6667 112.333L37.3333 111.667z"/>
<path style="fill:#d6e5fd; stroke:none;" d="M166 113L166 114L182 117L182 113L190 113L166 113z"/>
<path style="fill:#b1d0e8; stroke:none;" d="M182 113L182 117L201 115L201 114L195 114L195 113L215 113C205.558 109.038 191.98 112.917 182 113z"/>
<path style="fill:#8cc5e1; stroke:none;" d="M195 113L195 114L201 114L201 115L198 117L214 117L214 116L210 116L211 114L195 113z"/>
<path style="fill:#319dce; stroke:none;" d="M236 115L234 120L236 120L236 121L234 122L238 129L243 134L230 134L230 137L222 137L222 138L249 138L249 137L246 135L251 131C245.343 122.25 252.605 109.069 236 115z"/>
<path style="fill:#83becd; stroke:none;" d="M39.3333 117.667L39.6667 118.333L39.3333 117.667z"/>
<path style="fill:#dfe8f8; stroke:none;" d="M174 119L172 123L172 124L198 125L198 124L182 123L182 119L174 119z"/>
<path style="fill:#b2dafa; stroke:none;" d="M182 119L182 123L202 123L202 121L182 119z"/>
<path style="fill:#92bce9; stroke:none;" d="M198 119L198 121L202 121L202 123L193 123L193 124L226 123L226 122L222 122L223 119L198 119z"/>
<path style="fill:#bff5ff; stroke:none;" d="M198 124L198 125L233 125L198 124z"/>
<path style="fill:#c2d6f5; stroke:none;" d="M234 125C218.736 129.512 197.931 126 182 126L182 131L198 131L198 127L226 127L234 125z"/>
<path style="fill:#79b5cc; stroke:none;" d="M42.3333 127.667L42.6667 128.333L42.3333 127.667z"/>
<path style="fill:#94c5ea; stroke:none;" d="M198 127L198 131L214 131L214 127L198 127z"/>
<path style="fill:#bed0d8; stroke:none;" d="M206 131L206 132L241 132L206 131z"/>
<path style="fill:#b0ddff; stroke:none;" d="M242 132L198 133L198 134L232 134L242 132z"/>
<path style="fill:#9dc4dc; stroke:none;" d="M44.3333 133.667L44.6667 134.333L44.3333 133.667z"/>
<path style="fill:#e4e8eb; stroke:none;" d="M176 133L182 141L214 141L214 140L186 140L186 139L198 139L198 138L182 137L182 134L198 134L176 133z"/>
<path style="fill:#abdcf3; stroke:none;" d="M182 134L182 137L198 138L198 134L182 134z"/>
<path style="fill:#91bde1; stroke:none;" d="M198 134L198 139L249 139L249 140L246 140L246 141L251 141C246.525 134.097 221.908 138 214 138L214 134L198 134z"/>
<path style="fill:#6bace2; stroke:none;" d="M214 134L214 138L230 137L230 134L214 134z"/>
<path style="fill:#f1ffff; stroke:none;" d="M186 139L186 140L249 140L229 139L186 139z"/>
<path style="fill:#81b2b6; stroke:none;" d="M46 140L46 143L47 143L46 140z"/>
<path style="fill:#c2dfe0; stroke:none;" d="M214 140L214 141L246 141L214 140z"/>
<path style="fill:#b2cfe4; stroke:none;" d="M185 141L185 142C194.583 149.136 210.503 146 222 146L202.039 144.871L185 141z"/>
<path style="fill:#84baf2; stroke:none;" d="M190 141L190 142L222 144C212.754 139.048 200.148 141 190 141z"/>
<path style="fill:#66a6da; stroke:none;" d="M214 141L214 142L222 143L222 144L218 144L218 145C223.074 145 230.942 146.717 234 142L214 141z"/>
<path style="fill:#459bcc; stroke:none;" d="M230 141L230 142L234 142L233 145L246 145L246 143L230 141z"/>
<path style="fill:#7abdde; stroke:none;" d="M47.3333 143.667L47.6667 144.333L47.3333 143.667z"/>
<path style="fill:#78aab4; stroke:none;" d="M222 145L222 146L257 146L222 145z"/>
<path style="fill:#caf1ff; stroke:none;" d="M194 147L194 148L241 148L258 146L194 147z"/>
<path style="fill:#399ac7; stroke:none;" d="M258 147L230 149L230 152L263 153L263 152L255 149L258 147z"/>
<path style="fill:#97bccb; stroke:none;" d="M194 148L198 151L218 149L194 148z"/>
<path style="fill:#699daf; stroke:none;" d="M218 148L218 149L254 149C244.44 144.989 228.387 148 218 148z"/>
<path style="fill:#95cbe0; stroke:none;" d="M49.3333 149.667L49.6667 150.333L49.3333 149.667z"/>
<path style="fill:#8dc2f3; stroke:none;" d="M198 149L198 153L214 153L214 149L198 149z"/>
<path style="fill:#69b1e3; stroke:none;" d="M214 149L214 153L238 153L238 152L230 152L230 149L214 149z"/>
<path style="fill:#6eb7d6; stroke:none;" d="M50.3333 153.667L50.6667 154.333L50.3333 153.667z"/>
<path style="fill:#1a86b6; stroke:none;" d="M246 159L268 159L269 157L269 156L264 157L266 154C259.671 155.175 249.804 152.972 246 159z"/>
<path style="fill:#6eb2e3; stroke:none;" d="M203 155C208.376 161.454 218.535 158.943 226 158L226 157L222 157L222 156L230 156L203 155z"/>
<path style="fill:#4aa3d2; stroke:none;" d="M222 156L222 157L226 157L226 158L222 158L222 159C230.625 159 241.649 161.112 249 156L222 156z"/>
<path style="fill:#2d7b94; stroke:none;" d="M51 157L52 165L53 165L51 157z"/>
<path style="fill:#96d0eb; stroke:none;" d="M52.3333 159.667L52.6667 160.333L52.3333 159.667z"/>
<path style="fill:#85b1b7; stroke:none;" d="M207 159L207 160L241 160L207 159z"/>
<path style="fill:#4a94a0; stroke:none;" d="M241 159L241 160L269 160L241 159z"/>
<path style="fill:#deffff; stroke:none;" d="M207 160L207 161L209 164L210 164L228 162L270 162L252 160L207 160z"/>
<path style="fill:#91bbd0; stroke:none;" d="M210 162L214 167L214 163L230 163L210 162z"/>
<path style="fill:#6898a0; stroke:none;" d="M230 162L230 163L270 163C259.488 158.589 241.434 162 230 162z"/>
<path style="fill:#69b4de; stroke:none;" d="M53.3333 163.667L53.6667 164.333L53.3333 163.667z"/>
<path style="fill:#66afde; stroke:none;" d="M214 163L214 167L230 167C226.833 161.519 219.497 163 214 163z"/>
<path style="fill:#3193c2; stroke:none;" d="M227 163C230.487 169.036 239.993 167 246 167L246 163L227 163z"/>
<path style="fill:#028dbd; stroke:none;" d="M246 163L246 167L265 166L246 163z"/>
<path style="fill:#cadfe0; stroke:none;" d="M214 167L214 168L274 168L255 167L214 167z"/>
<path style="fill:#4597cc; stroke:none;" d="M215 169C217.064 178.46 238.477 173 246 173L246 172L215 169z"/>
<path style="fill:#56baf1; stroke:none;" d="M216 169L216 170L275 170L256 169L216 169z"/>
<path style="fill:#0d7cad; stroke:none;" d="M237 170L237 171L246 172L246 173L233 173L233 174L269 173L269 171L237 170z"/>
<path style="fill:#1e859f; stroke:none;" d="M56 173L60 191L61 191L56 173z"/>
<path style="fill:#8fe1ff; stroke:none;" d="M216 174L216 175L278 175L258 174L216 174z"/>
<path style="fill:#daffff; stroke:none;" d="M217 175L217 176L279 176L259 175L217 175z"/>
<path style="fill:#86b7c1; stroke:none;" d="M217 176L217 177L258 177C247.25 172.489 228.696 176 217 176z"/>
<path style="fill:#828ea5; stroke:none;" d="M258 176L258 177L279 177L258 176z"/>
<path style="fill:#3da0cc; stroke:none;" d="M217 177L218 181L233 179L217 177z"/>
<path style="fill:#2191bd; stroke:none;" d="M230 177L230 178L233 179L230 180L230 181L249 179L230 177z"/>
<path style="fill:#0a7bae; stroke:none;" d="M242 177L242 178L249 178L249 179L240 180L240 181L270 181L270 177L242 177z"/>
<path style="fill:#92b9c2; stroke:none;" d="M218 181L218 182L258 182C247.488 177.589 229.434 181 218 181z"/>
<path style="fill:#779bb2; stroke:none;" d="M258 181L258 182L282 182L258 181z"/>
<path style="fill:#7ed2ff; stroke:none;" d="M282 182C263.399 187.498 237.434 183 218 183L218 184L267 184L282 182z"/>
<path style="fill:#b1c7d6; stroke:none;" d="M217 184L217 189L218 189L217 184z"/>
<path style="fill:#3899c6; stroke:none;" d="M218 184L218 188L242 186L218 184z"/>
<path style="fill:#1884b2; stroke:none;" d="M235 184L235 185L242 185L242 186L230 187L230 188L262 185L235 184z"/>
<path style="fill:#53aed5; stroke:none;" d="M218 188L218 189L285 189L264 188L218 188z"/>
<path style="fill:#8aadca; stroke:none;" d="M61.3333 189.667L61.6667 190.333L61.3333 189.667z"/>
<path style="fill:#b8d0e0; stroke:none;" d="M284 189L260 190L216 190L216 191L268 191L284 189z"/>
<path style="fill:#2d9dbd; stroke:none;" d="M215 195L228 195L230 191C224.702 191 217.326 189.214 215 195z"/>
<path style="fill:#7cbfc5; stroke:none;" d="M62.3333 192.667L62.6667 193.333L62.3333 192.667z"/>
<path style="fill:#0792c2; stroke:none;" d="M227 193L227 194L246 195L246 193L227 193z"/>
<path style="fill:#6898a0; stroke:none;" d="M214 194L225 196L254 196L254 195L214 194z"/>
<path style="fill:#93c7cb; stroke:none;" d="M63.3333 195.667L63.6667 196.333L63.3333 195.667z"/>
<path style="fill:#516d7e; stroke:none;" d="M254 195L254 196L287 196L254 195z"/>
<path style="fill:#daffff; stroke:none;" d="M217 196L217 197L286 197L264 196L217 196z"/>
<path style="fill:#78a9c7; stroke:none;" d="M286.333 196.667L286.667 197.333L286.333 196.667z"/>
<path style="fill:#b7f6ff; stroke:none;" d="M214 197L214 198L286 198L263 197L214 197z"/>
<path style="fill:#4a8ca8; stroke:none;" d="M206 202L206 203L246 199C236.208 194.891 214.718 196.516 206 202z"/>
<path style="fill:#22587b; stroke:none;" d="M246 198L246 199L286 199L286 201L278 201L278 202L287 202L287 198L246 198z"/>
<path style="fill:#71abc2; stroke:none;" d="M64.3333 199.667L64.6667 200.333L64.3333 199.667z"/>
<path style="fill:#3a98c9; stroke:none;" d="M209 202L209 203L238 203L238 202L222 202L222 201L226 201C220.758 197.419 214.089 198.859 209 202z"/>
<path style="fill:#0f8ab3; stroke:none;" d="M224 199L224 200L226 200L226 201L222 201L222 202L262 203L262 202L241 202L241 201L246 201L246 199L224 199z"/>
<path style="fill:#0a5e97; stroke:none;" d="M241 201L241 202L287 203L287 202L278 202L278 201L286 201L286 199L241 201z"/>
<path style="fill:#a2d1e8; stroke:none;" d="M65.3333 201.667L65.6667 202.333L65.3333 201.667z"/>
<path style="fill:#e1ffff; stroke:none;" d="M214 203L214 204C236.254 209.298 264.116 205 287 205L287 203L214 203z"/>
<path style="fill:#91bbb3; stroke:none;" d="M66.3333 205.667L66.6667 206.333L66.3333 205.667z"/>
<path style="fill:#469ecf; stroke:none;" d="M198 209L246 206C236.93 201.62 219.147 204.996 209 205C204.739 205.002 199.407 204.189 198 209z"/>
<path style="fill:#096eaf; stroke:none;" d="M214 207L214 209L287 210L287 205L214 207z"/>
<path style="fill:#2a7994; stroke:none;" d="M66 207L68 217L69 217L66 207z"/>
<path style="fill:#5095a7; stroke:none;" d="M190 209L190 210L230 210C221.797 206.558 198.313 206.386 190 209z"/>
<path style="fill:#ccffff; stroke:none;" d="M188 209L175 211L175 212L287 212C279.121 208.694 266.534 211 258 211C234.978 211 210.706 213.218 188 209z"/>
<path style="fill:#297287; stroke:none;" d="M230 209L230 210L254 210L230 209z"/>
<path style="fill:#175572; stroke:none;" d="M254 209L254 210L278 210L254 209z"/>
<path style="fill:#a9f2ff; stroke:none;" d="M198 210L198 211L287 211L260 210L198 210z"/>
<path style="fill:#78b0b2; stroke:none;" d="M174 212L174 213L230 213L212 212L174 212z"/>
<path style="fill:#55798e; stroke:none;" d="M230 212L230 213L287 213L269 212L230 212z"/>
<path style="fill:#359fcc; stroke:none;" d="M154 216L154 217L214 217C210.648 212.25 202.302 213.002 197 213C182.206 212.994 168.608 214.114 154 216z"/>
<path style="fill:#0b7bb5; stroke:none;" d="M206 213L206 214L246 217L246 213L206 213z"/>
<path style="fill:#005ea2; stroke:none;" d="M246 213L246 217L286 217C280.748 222.363 269.072 220 262 220L198 220L198 221L221 221L221 222L218 222L218 223L283 224L283 227L230 227L230 231L279 231C274.7 235.391 267.766 234 262 234L222 234L222 235L230 235L230 237L224 237L224 238L274 238C269.7 242.391 262.766 241 257 241C242.634 241 228.297 241.882 214 242L214 243L222 243L222 244L206 244L206 245L267 245C260.662 252.182 244.88 249 236 249C208.568 249 181.53 251 154 251L155 249L150 249L150 250C159.052 255.5 172.701 253 183 253L258 253C250.653 258.285 238.734 256 230 256L162 256L162 257C170.038 261.884 180.883 260 190 260L249 260C244.131 264.972 234.532 263 228 263L174 263L174 264C181.632 268.275 190.507 267 199 267L246 267L246 269L233 271L233 272L235 279L223 279L225 283L210 284L210 285L236 286L287 286L287 213L246 213z"/>
<path style="fill:#76b0e0; stroke:none;" d="M69.3333 215.667L69.6667 216.333L69.3333 215.667z"/>
<path style="fill:#bee4ec; stroke:none;" d="M150 217L150 218L240 218L286 219C281.143 213.441 259.328 217 252 217L183 217C172.394 217 160.398 215.345 150 217z"/>
<path style="fill:#88a7b1; stroke:none;" d="M70.3333 218.667L70.6667 219.333L70.3333 218.667z"/>
<path style="fill:#e1ffff; stroke:none;" d="M198 218L198 219L285 219L258 218L198 218z"/>
<path style="fill:#79c0e8; stroke:none;" d="M137 219L137 220L198 220L178 219L137 219z"/>
<path style="fill:#5caee4; stroke:none;" d="M198 219L198 220L230 220L198 219z"/>
<path style="fill:#4f86ca; stroke:none;" d="M230 219L230 220L285 220L267 219L230 219z"/>
<path style="fill:#80aad5; stroke:none;" d="M5.33333 220.667L5.66667 221.333L5.33333 220.667z"/>
<path style="fill:#4b93b8; stroke:none;" d="M118 223L118 224L189 223L188 221L198 221L174 220L118 223z"/>
<path style="fill:#9bb8c4; stroke:none;" d="M71.3333 221.667L71.6667 222.333L71.3333 221.667z"/>
<path style="fill:#1c93c3; stroke:none;" d="M188 221L188 222C197.497 224.807 211.312 223.799 221 222L188 221z"/>
<path style="fill:#8ed4fa; stroke:none;" d="M114 224L114 225L238 225C228.211 220.892 211.634 224 201 224C173.19 224 141.335 219.649 114 224z"/>
<path style="fill:#2782a9; stroke:none;" d="M182 223L182 224L230 224C217.586 218.791 195.526 223 182 223z"/>
<path style="fill:#73ade1; stroke:none;" d="M238 224L238 225L283 225C271.299 220.09 250.742 224 238 224z"/>
<path style="fill:#14819b; stroke:none;" d="M73 226C74.3987 232.41 88.8607 236.852 95 237L95 236L73 226z"/>
<path style="fill:#a8cdcd; stroke:none;" d="M110 228L150 227L222 227C214.841 223.996 203.744 226 196 226L137 226C130.713 226 114.25 223.136 110 228z"/>
<path style="fill:#929fb1; stroke:none;" d="M222 226L222 227L283 227L263 226L222 226z"/>
<path style="fill:#0d89bc; stroke:none;" d="M112 227L112 228C121.642 233.859 137.007 231 148 231L230 231L230 227L174 227L174 228L182 228L182 230L121 230L123 228L112 227z"/>
<path style="fill:#2998c9; stroke:none;" d="M121 230L182 230L182 228C167.039 227.876 152.031 227 137 227C131.922 227 124.248 225.403 121 230z"/>
<path style="fill:#a3d4f3; stroke:none;" d="M84.6667 231.333L85.3333 231.667L84.6667 231.333z"/>
<path style="fill:#91c3c9; stroke:none;" d="M118 231L118 232L214 232L185 231L118 231z"/>
<path style="fill:#7c97a7; stroke:none;" d="M214 231L214 232L279 232L258 231L214 231z"/>
<path style="fill:#8edbff; stroke:none;" d="M123 235L162 234L236 234C228.601 230.895 217.007 233 209 233L150 233C143.713 233 127.25 230.136 123 235z"/>
<path style="fill:#82b9e8; stroke:none;" d="M236 233L236 234L278 234C267.012 229.389 247.957 233 236 233z"/>
<path style="fill:#1f7cab; stroke:none;" d="M124 234C130.003 240.803 143.625 238 152 238C178.035 238 204.041 238.115 230 237L230 235L124 234z"/>
<path style="fill:#268fc1; stroke:none;" d="M130 235L130 236L158 237L214 237L188 235L130 235z"/>
<path style="fill:#52b6e2; stroke:none;" d="M129 238L129 239L209 239L184 238L129 238z"/>
<path style="fill:#4184bf; stroke:none;" d="M209 238L209 239C229.445 239 254.109 235.264 274 240L257 238L209 238z"/>
<path style="fill:#d0e2ef; stroke:none;" d="M134 239L135 242L181 241L273 241C262.496 236.592 244.42 240 233 240C200.51 240 166.22 243.072 134 239z"/>
<path style="fill:#f4ffff; stroke:none;" d="M137 239L137 240L273 240C262.258 235.493 243.682 239 232 239L137 239z"/>
<path style="fill:#96a7b4; stroke:none;" d="M102.667 240.333L103.333 240.667L102.667 240.333z"/>
<path style="fill:#0c86b9; stroke:none;" d="M136 241L136 242C144.318 246.66 154.738 245 164 245C183.371 245 202.686 244 222 244L222 243L214 243L214 242L222 242L195 241L136 241z"/>
<path style="fill:#406d91; stroke:none;" d="M108 243L108 244L112 245L112 244L108 243z"/>
<path style="fill:#6998a9; stroke:none;" d="M142 245L142 246L214 246L191 245L142 245z"/>
<path style="fill:#497178; stroke:none;" d="M214 245L214 246L267 246L250 245L214 245z"/>
<path style="fill:#e1ffff; stroke:none;" d="M143 246L143 247L147 249L148 249C158.108 244.136 173.917 247 185 247L267 247C256.973 242.792 239.896 246 229 246L143 246z"/>
<path style="fill:#bef9ff; stroke:none;" d="M150 247L150 248L266 248L231 247L150 247z"/>
<path style="fill:#5c8996; stroke:none;" d="M118 248L118 249L121 249L118 248z"/>
<path style="fill:#4e8396; stroke:none;" d="M148 248L148 249L182 249L148 248z"/>
<path style="fill:#2a527e; stroke:none;" d="M182 248L182 249L264 249L239 248L182 248z"/>
<path style="fill:#097eb4; stroke:none;" d="M154 250L154 251L206 250L190 249L154 250z"/>
<path style="fill:#d2f0f4; stroke:none;" d="M156 253L156 254L258 254L227 253L156 253z"/>
<path style="fill:#2577b6; stroke:none;" d="M160 255L160 256L256 256L227 255L160 255z"/>
<path style="fill:#93cdff; stroke:none;" d="M167 260L167 261L220 261L249 262C245.298 257.764 233.373 260 228 260L167 260z"/>
<path style="fill:#6f8799; stroke:none;" d="M173 264C195.845 258.561 224.507 263 248 263C242.784 260.811 235.619 262 230 262L191 262C186.099 262 176.407 260.101 173 264z"/>
<path style="fill:#a9b6c7; stroke:none;" d="M180 267L180 268C199.226 268 222.29 264.546 241 269L225 267L180 267z"/>
<path style="fill:#135494; stroke:none;" d="M186 270L186 271C199.459 277.257 218.386 274 233 274C225.989 280.57 207.224 277 198 277L198 278C209.575 284.484 222.7 279 235 279L233 272L233 271L246 269L246 267L234.996 269.942L186 270z"/>
<path style="fill:#6099ce; stroke:none;" d="M185 271C201.936 266.968 222.604 270 240 270C229.02 265.393 209.944 269 198 269C193.932 269 187.848 267.741 185 271z"/>
<path style="fill:#6195c1; stroke:none;" d="M188.667 272.333L189.333 272.667L188.667 272.333z"/>
<path style="fill:#66818e; stroke:none;" d="M190.667 273.333L191.333 273.667L190.667 273.333z"/>
<path style="fill:#5f9ace; stroke:none;" d="M192 274L192 275L233 276L222 274L192 274z"/>
<path style="fill:#165c84; stroke:none;" d="M174 276L191 283C186.639 279.386 179.723 275.329 174 276z"/>
<path style="fill:#9bbbbd; stroke:none;" d="M197 278L231 277C225.33 274.621 201.07 273.342 197 278z"/>
<path style="fill:#68847c; stroke:none;" d="M205 281L205 282L225 283C221.387 278.865 210.249 281 205 281z"/>
<path style="fill:#689ad0; stroke:none;" d="M65.6667 282.333L66.3333 282.667L65.6667 282.333z"/>
<path style="fill:#78a3bf; stroke:none;" d="M69 283L69 284L72 284L69 283z"/>
<path style="fill:#9ccbf6; stroke:none;" d="M209 285L223 284C219.234 282.42 211.848 281.741 209 285z"/>
<path style="fill:#7badd6; stroke:none;" d="M74.6667 284.333L75.3333 284.667L74.6667 284.333z"/>
<path style="fill:#62828d; stroke:none;" d="M80 285L80 286L84 286L80 285z"/>
</svg>
